<svg xmlns="http://www.w3.org/2000/svg" aria-hidden="true" overflow="hidden" style="position:absolute;width:0;height:0">
  <defs>
    <symbol id="icon-facebook-icon" viewBox="0 0 32 32">
      <path
        d="M0 16C0 7.163 7.163 0 16 0s16 7.163 16 16-7.163 16-16 16S0 24.837 0 16zm17.668 9.408v-8.705h2.403l.319-3h-2.721l.004-1.501c0-.782.074-1.202 1.198-1.202h1.502V8H17.97c-2.887 0-3.903 1.455-3.903 3.902v1.801h-1.799v3h1.799v8.705h3.602z" />
    </symbol>
    <symbol id="icon-instagram-icon" viewBox="0 0 32 32">
      <path
        d="M0 16C0 7.163 7.163 0 16 0s16 7.163 16 16-7.163 16-16 16S0 24.837 0 16zm16.001-8.533c-2.317 0-2.608.01-3.519.052-.909.042-1.528.185-2.071.396-.561.218-1.037.51-1.512.984s-.766.95-.985 1.511c-.212.543-.356 1.163-.396 2.071-.041.91-.051 1.201-.051 3.519s.01 2.607.052 3.518c.042.909.186 1.529.396 2.071.218.561.51 1.037.984 1.512s.95.767 1.511.985c.543.211 1.163.355 2.072.396.91.041 1.201.052 3.518.052s2.608-.01 3.518-.052c.908-.042 1.529-.185 2.072-.396.561-.218 1.036-.51 1.511-.985s.766-.95.985-1.512c.21-.543.354-1.163.396-2.071.041-.91.052-1.2.052-3.518s-.011-2.608-.052-3.519c-.043-.909-.187-1.529-.396-2.071-.219-.561-.51-1.037-.985-1.512s-.949-.766-1.511-.984c-.544-.211-1.164-.355-2.073-.396-.91-.041-1.2-.052-3.518-.052h.003z" />
      <path
        d="M15.235 9.005h.766c2.278 0 2.548.008 3.448.049.832.038 1.284.177 1.584.294.398.155.682.34.981.638s.484.583.639.981c.117.3.256.752.294 1.584.041.899.05 1.17.05 3.447s-.009 2.548-.05 3.447c-.038.832-.177 1.284-.294 1.584-.155.398-.34.682-.639.98s-.582.483-.981.638c-.3.117-.752.256-1.584.294-.9.041-1.17.05-3.448.05s-2.549-.009-3.448-.05c-.832-.038-1.284-.177-1.585-.294-.398-.155-.683-.34-.981-.638s-.484-.582-.639-.981c-.117-.3-.256-.752-.294-1.584-.041-.9-.049-1.17-.049-3.449s.008-2.548.049-3.447c.038-.832.177-1.284.294-1.584.155-.398.34-.683.639-.981s.583-.484.981-.639c.301-.117.753-.256 1.585-.294.787-.036 1.092-.046 2.683-.048v.002zm5.32 1.417a1.024 1.024 0 1 0 0 2.048 1.024 1.024 0 0 0 0-2.048zM16 11.618a4.382 4.382 0 1 0 0 8.764 4.382 4.382 0 0 0 0-8.764z" />
      <path d="M16.001 13.155a2.844 2.844 0 1 1 .001 5.689 2.844 2.844 0 0 1-.001-5.689z" />
    </symbol>
    <symbol id="icon-arrow-left" viewBox="0 0 38 32">
      <path
        d="M.624 17.219a2.134 2.134 0 0 1 0-3.017L14.2.626a2.134 2.134 0 0 1 3.017 3.017L5.149 15.711l12.068 12.068a2.134 2.134 0 0 1-3.017 3.017L.624 17.22zm37.268.625H2.133v-4.267h35.759v4.267z" />
    </symbol>
    <symbol id="icon-arrow-right" viewBox="0 0 38 32">
      <path
        d="M37.267 14.202a2.134 2.134 0 0 1 0 3.017L23.691 30.795a2.134 2.134 0 0 1-3.017-3.017L32.742 15.71 20.674 3.642A2.134 2.134 0 0 1 23.691.625l13.576 13.576zm-1.509 3.642H-.001v-4.267h35.759v4.267z" />
    </symbol>
    <symbol id="icon-close" viewBox="0 0 32 32">
      <path
        d="M32 3.223 28.777 0 16 12.777 3.223 0 0 3.223 12.777 16 0 28.777 3.223 32 16 19.223 28.777 32 32 28.777 19.223 16 32 3.223z" />
    </symbol>
    <symbol id="icon-burger-menu" viewBox="0 0 32 32">
      <path
        d="M29.333 24.007c0 0.733-0.595 1.327-1.327 1.327h-10.68c-0.733 0-1.327-0.594-1.327-1.327s0.594-1.327 1.327-1.327h10.68c0.733 0 1.327 0.593 1.327 1.327zM29.333 16c0 0.733-0.595 1.327-1.327 1.327h-24.013c-0.733 0-1.327-0.594-1.327-1.327s0.594-1.327 1.327-1.327h24.013c0.733 0 1.327 0.595 1.327 1.327zM28.007 9.32c0.733 0 1.327-0.594 1.327-1.327s-0.594-1.327-1.327-1.327h-16.013c-0.733 0-1.327 0.594-1.327 1.327s0.594 1.327 1.327 1.327v0z">
      </path>
    </symbol>
    <symbol id="icon-logo-burger" viewBox="0 0 73 32">
      <path
        d="M3.355 6.701l-1.225-0.742q-1.155-0.702-1.646-1.378c-0.302-0.426-0.483-0.957-0.483-1.53 0-0.015 0-0.030 0-0.045l-0 0.002q0-1.332 0.919-2.162 0.929-0.83 2.405-0.83 1.411 0 2.589 0.79v1.831q-1.218-1.17-2.622-1.17-0.791 0-1.298 0.372-0.508 0.362-0.508 0.935 0 0.508 0.371 0.951 0.372 0.444 1.202 0.928l1.234 0.726q2.065 1.226 2.065 3.129 0 1.355-0.911 2.202-0.903 0.846-2.354 0.846-1.67 0-3.041-1.024v-2.047q1.306 1.652 3.025 1.653 0.758 0 1.257-0.419 0.508-0.427 0.508-1.064 0-1.032-1.483-1.951zM16.072 0.161h1.613v11.266h-1.613v-4.903h-6.33v4.903h-1.613v-11.266h1.613v4.871h6.33zM25.709 0q2.614 0 4.347 1.654 1.742 1.653 1.742 4.145 0 2.493-1.758 4.129-1.75 1.629-4.42 1.629-2.549 0-4.25-1.629-1.693-1.636-1.693-4.097 0-2.524 1.709-4.177t4.322-1.654zM25.774 1.532q-1.935 0-3.186 1.21-1.242 1.21-1.242 3.089 0 1.824 1.249 3.033 1.251 1.21 3.13 1.21 1.887 0 3.145-1.234 1.266-1.235 1.266-3.073 0-1.79-1.266-3.008-1.259-1.226-3.097-1.226zM33.686 11.427v-11.283h3.572q1.613 0 2.573 0.871t0.96 2.339q0 0.984-0.492 1.742t-1.347 1.105q-0.854 0.339-2.452 0.339h-1.193v4.887zM36.975 1.58h-1.669v3.524h1.766q0.984 0 1.516-0.459 0.533-0.468 0.532-1.332 0-1.733-2.145-1.733zM10.936 27.871q0 1.443-0.992 2.306-0.984 0.863-2.758 0.863h-6.46v-11.177h5.404q1.048 0 1.822 0.201 0.782 0.201 1.258 0.557 0.475 0.348 0.709 0.822 0.234 0.477 0.234 1.041 0 0.613-0.242 1.138c-0.153 0.332-0.357 0.616-0.604 0.854l-0.001 0.001q-0.355 0.33-0.718 0.468 1.146 0.452 1.742 1.146 0.604 0.685 0.605 1.782zM6.999 23.081q0-0.807-0.532-1.074t-1.662-0.266h-0.707v2.678h0.726q1.153 0 1.662-0.266 0.516-0.265 0.516-1.073zM7.551 27.733q0-1.435-2.081-1.435h-1.373v2.862h1.371q2.081 0 2.081-1.428zM24.887 31.039h-3.451l-0.911-2.266h-4.855l-0.928 2.266h-3.452l4.945-11.177h3.725zM19.75 26.829l-1.637-4.081-1.654 4.081zM38.13 31.039h-4.114l-4.274-5.233v5.234h-3.371v-11.177h3.37v5l4.049-5h3.661l-4.161 5.234zM48.024 31.039h-8.426v-11.176h8.291v2.242h-4.92v2.048h4.694v2.25h-4.694v2.388h5.056zM61.113 31.039h-3.621l-0.878-1.984q-0.485-1.089-0.871-1.589-0.387-0.508-0.758-0.645-0.364-0.145-0.943-0.145h-0.38v4.362h-3.369v-11.176h5.733q1.386 0 2.275 0.565 0.888 0.565 1.274 1.371 0.395 0.807 0.395 1.533 0 0.846-0.33 1.435-0.323 0.581-0.686 0.846c-0.233 0.17-0.499 0.339-0.777 0.49l-0.038 0.019q0.542 0.315 0.888 0.749 0.354 0.427 0.96 1.742zM56.533 23.394q0-0.774-0.509-1.081-0.508-0.307-1.653-0.307h-0.71v2.694h0.726q1.235 0 1.686-0.266 0.46-0.275 0.46-1.041zM73.064 19.862l-4.378 6.058v5.121h-3.371v-5.056l-4.459-6.121h3.499l2.565 3.516 2.572-3.516z">
      </path>
    </symbol>
  </defs>
</svg>